<?xml version="1.0" encoding="UTF-8"?>
<svg version="1.1" xmlns="http://www.w3.org/2000/svg" width="512" height="512">
<path d="M0 0 C0.8850119 0.00215515 1.7700238 0.0043103 2.68185425 0.00653076 C15.44922237 0.05644781 27.83304831 0.38343426 40.3125 3.3125 C41.6442627 3.61051514 41.6442627 3.61051514 43.00292969 3.91455078 C69.62147157 9.97246988 95.12730022 20.19835926 117.3125 36.3125 C118.78009766 37.35470703 118.78009766 37.35470703 120.27734375 38.41796875 C126.777144 43.14433573 132.7235603 48.26212359 138.56640625 53.7578125 C140.82583948 55.85976034 143.12442836 57.84618526 145.5 59.8125 C150.42444679 64.0844321 154.28695512 69.21300233 158.3125 74.3125 C158.95960938 75.08207031 159.60671875 75.85164063 160.2734375 76.64453125 C175.73316614 95.16465515 186.4866249 116.62635525 194.3125 139.3125 C194.56515625 140.04436523 194.8178125 140.77623047 195.078125 141.53027344 C201.51049594 160.62190774 204.46318527 180.98481784 204.45967102 201.08868408 C204.46334771 202.23482862 204.4670244 203.38097316 204.4708125 204.56184936 C204.48177747 208.38140682 204.48568085 212.20093702 204.48950195 216.02050781 C204.49524628 218.7677076 204.50240706 221.5149034 204.50941467 224.26210022 C204.52908959 232.48646578 204.53923081 240.71083241 204.54814246 248.93521559 C204.55253743 252.81657021 204.55790083 256.69792348 204.56313133 260.57927704 C204.58012958 273.4935134 204.59462378 286.40774896 204.60188007 299.32199478 C204.60378966 302.66599783 204.60571004 306.01000088 204.60766602 309.35400391 C204.60814976 310.1850393 204.6086335 311.01607469 204.6091319 311.87229297 C204.61743283 325.33524971 204.64277711 338.79811763 204.67524669 352.26103559 C204.70836981 366.1085935 204.7263333 379.95610631 204.72952431 393.80370402 C204.73168383 401.56848471 204.74035108 409.3331356 204.76598549 417.0978775 C204.78776389 423.70940288 204.79570776 430.32076684 204.78601871 436.93232402 C204.78149534 440.30032192 204.7854579 443.6677191 204.80278015 447.0357151 C204.89959482 466.98228107 204.277417 483.70269578 190 499.125 C185.88394208 502.95687575 181.29695183 505.74632079 176.3125 508.3125 C175.13300781 508.93705078 175.13300781 508.93705078 173.9296875 509.57421875 C163.46820162 514.24745304 148.12589189 514.34639061 137.3984375 510.28125 C136.71007812 509.9615625 136.02171875 509.641875 135.3125 509.3125 C134.56226563 508.9721875 133.81203125 508.631875 133.0390625 508.28125 C126.9879448 505.22471273 122.19659654 500.96566999 117.3125 496.3125 C114.52011291 497.58833203 112.51000795 498.93366417 110.3125 501.0625 C98.83482387 511.15493935 85.29444873 513.19758786 70.63623047 512.50341797 C57.32490446 511.40975786 47.91422578 503.87055994 38.3125 495.3125 C37.631875 496.3334375 37.631875 496.3334375 36.9375 497.375 C29.83341976 505.32480407 19.01069198 511.57922219 8.21289062 512.48950195 C-10.2525659 512.99372623 -22.63260619 509.65338237 -36.6875 497.3125 C-37.3475 496.6525 -38.0075 495.9925 -38.6875 495.3125 C-39.13738281 495.82039063 -39.58726562 496.32828125 -40.05078125 496.8515625 C-45.30867824 502.47824986 -50.68775814 506.12989782 -57.6875 509.3125 C-58.80511719 509.82490234 -58.80511719 509.82490234 -59.9453125 510.34765625 C-70.77983368 514.40588283 -85.3189771 513.86209461 -95.97265625 509.6484375 C-102.99188391 506.19437151 -109.49526479 502.22090558 -114.6875 496.3125 C-117.76484984 497.68849563 -119.88803841 499.29854856 -122.3125 501.625 C-133.83643217 511.90657517 -147.459025 513.33464617 -162.27734375 512.55517578 C-167.92008119 511.98701522 -172.73304921 509.96190134 -177.6875 507.3125 C-178.50347656 506.87808594 -179.31945312 506.44367188 -180.16015625 505.99609375 C-192.53295323 498.5469484 -199.46421195 486.95721598 -203.06896901 473.31173658 C-204.08980135 468.3617539 -204.1006967 463.51490742 -204.06845093 458.47662354 C-204.0731309 457.33597466 -204.07781087 456.19532579 -204.08263266 455.0201118 C-204.09453146 451.22455013 -204.08514485 447.42935296 -204.07568359 443.63378906 C-204.07810252 440.90103924 -204.08498749 438.16830455 -204.09161377 435.43556213 C-204.10491608 428.79649147 -204.10208754 422.15752289 -204.09337585 415.51844832 C-204.08657902 410.11272122 -204.08569122 404.70702257 -204.0889473 399.30129242 C-204.089407 398.52954693 -204.08986669 397.75780143 -204.09034032 396.96266972 C-204.09129961 395.3943414 -204.09227225 393.82601309 -204.0932581 392.2576848 C-204.10180353 377.56527468 -204.09199475 362.8729208 -204.075857 348.18051991 C-204.0624866 335.62015555 -204.06475643 323.05987453 -204.07861328 310.49951172 C-204.09473955 295.87546792 -204.1009461 281.25147355 -204.09177649 266.62742209 C-204.09082099 265.06144699 -204.08987787 263.49547188 -204.0889473 261.92949677 C-204.08848447 261.15926302 -204.08802164 260.38902928 -204.08754479 259.59545512 C-204.08497353 254.21300044 -204.08928592 248.83057751 -204.09638596 243.44812775 C-204.1048813 236.86360391 -204.10235629 230.27918706 -204.08654372 223.69467518 C-204.07876221 220.3459083 -204.07705954 216.9974624 -204.08549118 213.64867592 C-204.18946771 168.11081003 -194.19477647 124.97603761 -167.6875 87.3125 C-167.28644043 86.74176758 -166.88538086 86.17103516 -166.47216797 85.58300781 C-161.94575611 79.21222083 -157.04762669 73.2903413 -151.73046875 67.56640625 C-150.3131021 66.00269582 -148.95520906 64.38380919 -147.6484375 62.7265625 C-145.9107328 60.58731648 -144.22648709 58.89061227 -142.125 57.125 C-139.81736992 55.16688323 -137.56982444 53.19902714 -135.390625 51.09765625 C-122.62717417 38.86931904 -107.3256459 29.42979256 -91.6875 21.3125 C-90.53765625 20.71050781 -89.3878125 20.10851562 -88.203125 19.48828125 C-71.51129364 11.23509797 -53.05404802 5.37085903 -34.6875 2.3125 C-33.64118408 2.13662354 -32.59486816 1.96074707 -31.5168457 1.77954102 C-20.98742443 0.1852053 -10.6308475 -0.04659647 0 0 Z " fill="#0A6861" transform="translate(255.6875,-0.3125)"/>
<path d="M0 0 C0.8850119 0.00215515 1.7700238 0.0043103 2.68185425 0.00653076 C15.44922237 0.05644781 27.83304831 0.38343426 40.3125 3.3125 C41.6442627 3.61051514 41.6442627 3.61051514 43.00292969 3.91455078 C69.62147157 9.97246988 95.12730022 20.19835926 117.3125 36.3125 C118.78009766 37.35470703 118.78009766 37.35470703 120.27734375 38.41796875 C126.777144 43.14433573 132.7235603 48.26212359 138.56640625 53.7578125 C140.82583948 55.85976034 143.12442836 57.84618526 145.5 59.8125 C150.42444679 64.0844321 154.28695512 69.21300233 158.3125 74.3125 C158.95960938 75.08207031 159.60671875 75.85164063 160.2734375 76.64453125 C175.73316614 95.16465515 186.4866249 116.62635525 194.3125 139.3125 C194.56515625 140.04436523 194.8178125 140.77623047 195.078125 141.53027344 C201.51049594 160.62190774 204.46318527 180.98481784 204.45967102 201.08868408 C204.46334771 202.23482862 204.4670244 203.38097316 204.4708125 204.56184936 C204.48177747 208.38140682 204.48568085 212.20093702 204.48950195 216.02050781 C204.49524628 218.7677076 204.50240706 221.5149034 204.50941467 224.26210022 C204.52908959 232.48646578 204.53923081 240.71083241 204.54814246 248.93521559 C204.55253743 252.81657021 204.55790083 256.69792348 204.56313133 260.57927704 C204.58012958 273.4935134 204.59462378 286.40774896 204.60188007 299.32199478 C204.60378966 302.66599783 204.60571004 306.01000088 204.60766602 309.35400391 C204.60814976 310.1850393 204.6086335 311.01607469 204.6091319 311.87229297 C204.61743283 325.33524971 204.64277711 338.79811763 204.67524669 352.26103559 C204.70836981 366.1085935 204.7263333 379.95610631 204.72952431 393.80370402 C204.73168383 401.56848471 204.74035108 409.3331356 204.76598549 417.0978775 C204.78776389 423.70940288 204.79570776 430.32076684 204.78601871 436.93232402 C204.78149534 440.30032192 204.7854579 443.6677191 204.80278015 447.0357151 C204.89959482 466.98228107 204.277417 483.70269578 190 499.125 C185.88394208 502.95687575 181.29695183 505.74632079 176.3125 508.3125 C175.13300781 508.93705078 175.13300781 508.93705078 173.9296875 509.57421875 C163.46820162 514.24745304 148.12589189 514.34639061 137.3984375 510.28125 C136.71007812 509.9615625 136.02171875 509.641875 135.3125 509.3125 C134.56226563 508.9721875 133.81203125 508.631875 133.0390625 508.28125 C126.9879448 505.22471273 122.19659654 500.96566999 117.3125 496.3125 C114.52011291 497.58833203 112.51000795 498.93366417 110.3125 501.0625 C98.83482387 511.15493935 85.29444873 513.19758786 70.63623047 512.50341797 C57.32490446 511.40975786 47.91422578 503.87055994 38.3125 495.3125 C37.631875 496.3334375 37.631875 496.3334375 36.9375 497.375 C29.83341976 505.32480407 19.01069198 511.57922219 8.21289062 512.48950195 C-10.2525659 512.99372623 -22.63260619 509.65338237 -36.6875 497.3125 C-37.3475 496.6525 -38.0075 495.9925 -38.6875 495.3125 C-39.13738281 495.82039063 -39.58726562 496.32828125 -40.05078125 496.8515625 C-45.30867824 502.47824986 -50.68775814 506.12989782 -57.6875 509.3125 C-58.80511719 509.82490234 -58.80511719 509.82490234 -59.9453125 510.34765625 C-70.77983368 514.40588283 -85.3189771 513.86209461 -95.97265625 509.6484375 C-102.99188391 506.19437151 -109.49526479 502.22090558 -114.6875 496.3125 C-117.76484984 497.68849563 -119.88803841 499.29854856 -122.3125 501.625 C-133.83643217 511.90657517 -147.459025 513.33464617 -162.27734375 512.55517578 C-167.92008119 511.98701522 -172.73304921 509.96190134 -177.6875 507.3125 C-178.50347656 506.87808594 -179.31945312 506.44367188 -180.16015625 505.99609375 C-192.53295323 498.5469484 -199.46421195 486.95721598 -203.06896901 473.31173658 C-204.08980135 468.3617539 -204.1006967 463.51490742 -204.06845093 458.47662354 C-204.0731309 457.33597466 -204.07781087 456.19532579 -204.08263266 455.0201118 C-204.09453146 451.22455013 -204.08514485 447.42935296 -204.07568359 443.63378906 C-204.07810252 440.90103924 -204.08498749 438.16830455 -204.09161377 435.43556213 C-204.10491608 428.79649147 -204.10208754 422.15752289 -204.09337585 415.51844832 C-204.08657902 410.11272122 -204.08569122 404.70702257 -204.0889473 399.30129242 C-204.089407 398.52954693 -204.08986669 397.75780143 -204.09034032 396.96266972 C-204.09129961 395.3943414 -204.09227225 393.82601309 -204.0932581 392.2576848 C-204.10180353 377.56527468 -204.09199475 362.8729208 -204.075857 348.18051991 C-204.0624866 335.62015555 -204.06475643 323.05987453 -204.07861328 310.49951172 C-204.09473955 295.87546792 -204.1009461 281.25147355 -204.09177649 266.62742209 C-204.09082099 265.06144699 -204.08987787 263.49547188 -204.0889473 261.92949677 C-204.08848447 261.15926302 -204.08802164 260.38902928 -204.08754479 259.59545512 C-204.08497353 254.21300044 -204.08928592 248.83057751 -204.09638596 243.44812775 C-204.1048813 236.86360391 -204.10235629 230.27918706 -204.08654372 223.69467518 C-204.07876221 220.3459083 -204.07705954 216.9974624 -204.08549118 213.64867592 C-204.18946771 168.11081003 -194.19477647 124.97603761 -167.6875 87.3125 C-167.28644043 86.74176758 -166.88538086 86.17103516 -166.47216797 85.58300781 C-161.94575611 79.21222083 -157.04762669 73.2903413 -151.73046875 67.56640625 C-150.3131021 66.00269582 -148.95520906 64.38380919 -147.6484375 62.7265625 C-145.9107328 60.58731648 -144.22648709 58.89061227 -142.125 57.125 C-139.81736992 55.16688323 -137.56982444 53.19902714 -135.390625 51.09765625 C-122.62717417 38.86931904 -107.3256459 29.42979256 -91.6875 21.3125 C-90.53765625 20.71050781 -89.3878125 20.10851562 -88.203125 19.48828125 C-71.51129364 11.23509797 -53.05404802 5.37085903 -34.6875 2.3125 C-33.64118408 2.13662354 -32.59486816 1.96074707 -31.5168457 1.77954102 C-20.98742443 0.1852053 -10.6308475 -0.04659647 0 0 Z M-44 26 C-44.97783447 26.26055176 -45.95566895 26.52110352 -46.96313477 26.78955078 C-72.37932039 33.77336138 -96.83710428 45.84662919 -116.6875 63.3125 C-117.50347656 64.01890625 -118.31945312 64.7253125 -119.16015625 65.453125 C-121.7095315 67.69948417 -124.20560956 69.99181997 -126.6875 72.3125 C-127.62335938 73.18261719 -128.55921875 74.05273438 -129.5234375 74.94921875 C-156.68769487 100.80110631 -174.19650436 136.59692093 -180.6875 173.3125 C-180.86640526 174.28999112 -181.04531052 175.26748224 -181.22963715 176.27459431 C-183.29048237 189.3228479 -182.9993755 202.44200926 -183.00976562 215.61987305 C-183.01797664 218.37106038 -183.02904852 221.1222349 -183.03985596 223.87341309 C-183.06682421 231.30903751 -183.07903746 238.7446401 -183.08787727 246.18030524 C-183.09342941 250.83072148 -183.10190823 255.48112958 -183.11088562 260.1315403 C-183.13523262 273.03311354 -183.15584676 285.93468035 -183.1626358 298.83627605 C-183.16307494 299.65912926 -183.16351407 300.48198246 -183.16396651 301.32977061 C-183.16440306 302.15444398 -183.16483962 302.97911736 -183.1652894 303.82878083 C-183.1661763 305.49954204 -183.16706943 307.17030325 -183.16796875 308.84106445 C-183.16841161 309.66979696 -183.16885447 310.49852946 -183.16931075 311.35237507 C-183.17721629 324.79702284 -183.21217047 338.24145451 -183.25868779 351.68601873 C-183.30617152 365.52243196 -183.33104164 379.3587367 -183.33337164 393.19523269 C-183.33520066 400.95099677 -183.34659376 408.70647807 -183.38301086 416.46216393 C-183.41388815 423.06051084 -183.42400908 429.65848728 -183.40753466 436.25689276 C-183.39975058 439.61884831 -183.40473444 442.97945535 -183.42964935 446.34141731 C-183.45513786 449.99575854 -183.44331165 453.64820609 -183.42248535 457.30253601 C-183.44665457 458.87479188 -183.44665457 458.87479188 -183.47131205 460.47881049 C-183.35745399 469.0613559 -180.66617377 476.80309806 -174.91473627 483.32173842 C-173.26069249 484.86070303 -171.58332287 486.08650748 -169.6875 487.3125 C-168.83091797 487.92738281 -168.83091797 487.92738281 -167.95703125 488.5546875 C-161.7254181 492.40792377 -154.76703611 492.30194763 -147.6875 491.3125 C-139.28048028 488.69456789 -132.85931474 484.15644136 -128.6875 476.3125 C-125.45117126 468.99031256 -125.27526122 462.10921998 -125.31640625 454.1953125 C-125.2990081 451.62239461 -125.28142391 449.04947797 -125.26367188 446.4765625 C-125.25069425 442.47069594 -125.24998824 438.46487016 -125.25170898 434.45898438 C-125.21399926 393.85315574 -114.56413457 361.28197269 -85.42578125 332.04296875 C-62.52972347 310.43363157 -31.44492735 298.66272658 -0.125 298.8125 C0.56471893 298.81393005 1.25443787 298.81536011 1.96505737 298.8168335 C36.05118668 298.99047954 66.70703773 313.12515917 90.89404297 336.87548828 C113.0341447 359.30520236 125.61200296 390.55291928 125.5859375 421.90625 C125.60621879 424.50911894 125.62706942 427.1119835 125.6484375 429.71484375 C125.67311656 433.76969241 125.68836368 437.82447498 125.69335938 441.87939453 C125.69938776 445.82607547 125.73673083 449.7722341 125.7734375 453.71875 C125.76586929 455.51765686 125.76586929 455.51765686 125.75814819 457.35290527 C125.87232184 467.20842333 127.61910032 476.44015415 134.6015625 483.8125 C141.98926706 490.28939167 148.29874892 491.68749861 157.98828125 491.58984375 C162.76984756 491.19091166 166.26945035 489.83841314 170.3125 487.3125 C170.93769531 486.92320312 171.56289063 486.53390625 172.20703125 486.1328125 C178.45672479 481.53064166 182.44248734 473.93185198 183.86360085 466.38641751 C184.06932074 463.35655802 184.09909098 460.37936347 184.05421448 457.34291077 C184.06507935 455.62853912 184.06507935 455.62853912 184.07616371 453.87953371 C184.09295695 450.08199397 184.06717821 446.28599508 184.04125977 442.48852539 C184.04115703 439.75237038 184.05006331 437.01626101 184.05851746 434.28012085 C184.0735827 427.63704313 184.05679224 420.99441632 184.02896655 414.35139466 C183.9976577 406.59455572 183.99802944 398.83781169 183.99948429 391.08092146 C184.00098393 377.22206612 183.97357106 363.36341888 183.92993164 349.50463867 C183.88774786 336.10095424 183.86641646 322.69745294 183.8684082 309.29370117 C183.86852807 308.46938156 183.86864794 307.64506195 183.86877144 306.79576296 C183.8688925 305.97277968 183.86901357 305.14979639 183.8691383 304.30187422 C183.87121764 288.99014991 183.85347222 273.67850246 183.82667865 258.36680322 C183.81769105 252.97990038 183.81444724 247.59301187 183.81308174 242.20610237 C183.81101723 235.6200599 183.79737748 229.03414692 183.77008332 222.44815923 C183.75639857 219.09762447 183.74865615 215.74738935 183.75086594 212.39680672 C183.75859978 193.51384134 183.16865762 174.67344412 177.5 156.5 C177.10880981 155.2015918 177.10880981 155.2015918 176.7097168 153.87695312 C175.93422421 151.34720901 175.13050903 148.82877809 174.3125 146.3125 C174.08723633 145.60818848 173.86197266 144.90387695 173.62988281 144.17822266 C165.35904376 118.82791551 150.41239718 96.65172135 132.3125 77.3125 C131.44109375 76.37535156 130.5696875 75.43820313 129.671875 74.47265625 C99.74760075 43.02716193 55.14981077 22.32664676 11.6907196 21.05877686 C7.71042277 20.97291648 3.73115066 20.94363263 -0.25 20.9375 C-1.00673004 20.93532471 -1.76346008 20.93314941 -2.54312134 20.9309082 C-16.6795883 20.93551974 -30.29774545 22.31258058 -44 26 Z " fill="#1F272E" transform="translate(255.6875,-0.3125)"/>
<path d="M0 0 C0 91.08 0 182.16 0 276 C-5.28 276.66 -10.56 277.32 -16 278 C-19.76710769 278.70866382 -23.46334855 279.43933207 -27.1875 280.3125 C-28.12746826 280.53196289 -29.06743652 280.75142578 -30.03588867 280.97753906 C-60.57445981 288.34029192 -88.73543281 307.67798469 -105.54125977 334.42236328 C-117.9976298 354.96277155 -125.29353912 376.41414245 -125.2734375 400.59375 C-125.29371879 403.19661894 -125.31456942 405.7994835 -125.3359375 408.40234375 C-125.36061656 412.45719241 -125.37586368 416.51197498 -125.38085938 420.56689453 C-125.38688776 424.51357547 -125.42423083 428.4597341 -125.4609375 432.40625 C-125.45589203 433.60552124 -125.45084656 434.80479248 -125.44564819 436.04040527 C-125.55607457 445.57245685 -127.1762179 455.30238552 -134.0625 462.4296875 C-141.54887896 468.4972769 -149.05619966 470.98859814 -158.66796875 470.51171875 C-166.72139745 469.27490848 -172.16914825 465.53314523 -177.4296875 459.453125 C-182.31107322 451.82747766 -183.58325821 445.38507717 -183.50120544 436.39117432 C-183.50673984 435.25082316 -183.51227424 434.11047201 -183.51797634 432.93556476 C-183.53154722 429.12901941 -183.51663155 425.32313379 -183.50170898 421.51660156 C-183.50328621 418.78089803 -183.5108431 416.04521816 -183.51808167 413.30952454 C-183.53199123 406.65611169 -183.52447231 400.0028891 -183.50940608 393.34948537 C-183.49249403 385.58286146 -183.49576336 377.81628429 -183.49950016 370.04964766 C-183.50537581 356.17254589 -183.49122522 342.29553487 -183.46655273 328.41845703 C-183.44268852 314.99426867 -183.43552717 301.57020184 -183.44604492 288.14599609 C-183.45749953 273.50000705 -183.45932413 258.8540742 -183.44494683 244.20808578 C-183.44342118 242.6404303 -183.44190082 241.07277481 -183.44038582 239.50511932 C-183.4392491 238.34846161 -183.4392491 238.34846161 -183.43808941 237.16843708 C-183.43337715 231.77404885 -183.43517653 226.37968596 -183.43945122 220.98529816 C-183.44442039 214.38821839 -183.43820865 207.79125272 -183.41855692 201.19419882 C-183.40879941 197.83759824 -183.40510192 194.48131132 -183.41144943 191.12468147 C-183.44268306 172.22239138 -182.86211125 153.38003118 -177.1875 135.1875 C-176.92670654 134.32189453 -176.66591309 133.45628906 -176.3972168 132.56445312 C-175.62172421 130.03470901 -174.81800903 127.51627809 -174 125 C-173.66210449 123.94353271 -173.66210449 123.94353271 -173.31738281 122.86572266 C-165.04654376 97.51541551 -150.09989718 75.33922135 -132 56 C-130.69289063 54.59427734 -130.69289063 54.59427734 -129.359375 53.16015625 C-112.07618356 34.99172817 -90.29981301 21.09919013 -67 12 C-65.87851563 11.55269531 -64.75703125 11.10539062 -63.6015625 10.64453125 C-42.61958173 2.69681126 -22.50266424 0 0 0 Z " fill="#008577" transform="translate(256,21)"/>
<path d="M0 0 C1.57151998 1.34368842 3.134197 2.69779366 4.6875 4.0625 C5.48285156 4.70316406 6.27820313 5.34382813 7.09765625 6.00390625 C22.79029146 19.11011664 33.3767082 37.52825095 38.6875 57.0625 C39.01097412 57.99280029 39.33444824 58.92310059 39.66772461 59.8815918 C43.68249422 72.40455883 43.02871511 85.93774885 43.00317383 98.93164062 C42.99999359 102.31933198 43.02361705 105.70616473 43.04882812 109.09375 C43.05109988 111.27604058 43.05180519 113.45833348 43.05078125 115.640625 C43.059991 116.63878235 43.06920074 117.6369397 43.07868958 118.66534424 C43.01296158 128.74377887 40.97158959 137.72941429 33.6875 145.0625 C25.24004925 151.57200617 17.27977118 153.16104341 6.6875 152.0625 C-1.62014447 149.64879249 -7.25035812 144.29405901 -11.55859375 136.93359375 C-13.59680372 132.76011619 -14.59937305 128.8335168 -15.3125 124.25 C-15.84063636 121.08118186 -16.24602896 119.17683019 -17.875 116.375 C-21.53249424 114.40558002 -25.26716969 114.09389978 -29.3125 115.0625 C-33.3871308 118.06026409 -34.00474062 120.94468689 -34.8125 125.8125 C-36.64397691 135.21343202 -39.51218925 142.13726395 -47.3125 148.0625 C-54.50183404 152.35331732 -62.08725682 153.21443823 -70.3125 152.0625 C-77.99149416 149.64543498 -84.66890908 144.91046454 -88.55859375 137.77734375 C-90.49997596 133.29011966 -91.54163795 129.01724125 -92.25 124.1875 C-92.8400699 120.62186392 -93.1444941 119.27497805 -95.4375 116.375 C-99.50107061 114.51989168 -101.85064003 114.49591461 -106.3125 115.0625 C-110.14198017 117.99010984 -110.93614347 120.52887295 -111.75 125.1875 C-113.91014468 135.43669711 -117.4497932 143.08764148 -126.3125 149.0625 C-132.70040799 152.86806221 -140.08260748 152.99874508 -147.3125 152.0625 C-150.96272951 150.81608017 -154.0787286 149.14958698 -157.3125 147.0625 C-158.240625 146.485 -159.16875 145.9075 -160.125 145.3125 C-168.05541883 137.15549777 -169.62389285 127.33512124 -169.578125 116.44140625 C-169.58003845 115.4238475 -169.5819519 114.40628876 -169.58392334 113.3578949 C-169.58528055 111.20709994 -169.58161662 109.05629666 -169.57324219 106.90551758 C-169.56263633 103.66663419 -169.57310151 100.42831824 -169.5859375 97.18945312 C-169.61112062 63.17687269 -161.53934901 33.32479853 -136.86328125 8.609375 C-99.65348095 -25.73813297 -40.93513796 -32.07223426 0 0 Z " fill="#0A9261" transform="translate(319.3125,338.9375)"/>
<path d="M0 0 C1.08798889 -0.00860046 2.17597778 -0.01720093 3.29693604 -0.02606201 C4.50108154 -0.03032196 5.70522705 -0.03458191 6.94586182 -0.03897095 C8.20594055 -0.04714844 9.46601929 -0.05532593 10.76428223 -0.06375122 C14.95532074 -0.09000981 19.14636943 -0.1052849 23.33746338 -0.11953735 C24.77895362 -0.12489589 26.2204438 -0.13027339 27.6619339 -0.13566971 C33.65822864 -0.15730609 39.65452065 -0.17604261 45.65084457 -0.1872921 C54.24960346 -0.20352853 62.84791022 -0.23668948 71.44649863 -0.29369295 C77.48900987 -0.33238694 83.53140018 -0.35192424 89.57403207 -0.35721266 C93.18440443 -0.36086762 96.794295 -0.37290229 100.40453339 -0.4053154 C104.43420803 -0.44097389 108.46291128 -0.43702668 112.49273682 -0.42959595 C114.28680969 -0.45420395 114.28680969 -0.45420395 116.11712646 -0.47930908 C125.11692265 -0.41120501 125.11692265 -0.41120501 128.19592285 2.62786865 C129.07809479 3.87825424 129.07809479 3.87825424 129.97808838 5.15390015 C130.30808838 5.48390015 130.63808838 5.81390015 130.97808838 6.15390015 C132.71594313 25.23688216 125.50270668 42.40693791 113.97808838 57.15390015 C105.79684818 66.92927906 95.44248274 73.0887537 83.66558838 77.59140015 C82.69770386 77.9620459 82.69770386 77.9620459 81.71026611 78.34017944 C65.57292466 84.13227705 45.89645604 82.42197513 30.40777588 75.57577515 C23.70852217 72.12511546 17.65622413 68.10263111 11.97808838 63.15390015 C11.38769775 62.65761108 10.79730713 62.16132202 10.18902588 61.6499939 C-2.99198692 49.64263293 -9.54095373 32.11031858 -11.38128662 14.7671814 C-11.71167222 7.3059734 -11.71167222 7.3059734 -9.93206787 4.33358765 C-8.58441162 2.96640015 -8.58441162 2.96640015 -6.02191162 1.15390015 C-4.34704992 -0.52096155 -2.30030076 0.01347488 0 0 Z " fill="#20272E" transform="translate(196.02191162109375,357.8460998535156)"/>
<path d="M0 0 C0 9.57 0 19.14 0 29 C-4.63417969 29.01417969 -9.26835937 29.02835937 -14.04296875 29.04296875 C-16.98249782 29.06303093 -19.92187127 29.08455266 -22.86132812 29.11132812 C-27.52488271 29.15366949 -32.18804281 29.19066287 -36.85180664 29.19555664 C-40.61285202 29.19984184 -44.37301383 29.22832094 -48.13378334 29.27343178 C-49.56700807 29.28640004 -51.00033859 29.29071677 -52.43361473 29.28615379 C-54.44434439 29.28124427 -56.45506968 29.31021995 -58.46557617 29.34057617 C-59.60919113 29.34723801 -60.75280609 29.35389984 -61.93107605 29.36076355 C-65.9406055 30.19592187 -67.45362512 31.86282279 -70 35 C-73.01337371 48.30245892 -66.79629387 65.12233951 -59.95703125 76.35546875 C-49.35363759 92.56039216 -34.10296045 104.11043909 -14.875 108.25 C-9.9405255 109.00914992 -4.96775217 109.50322478 0 110 C0 127.16 0 144.32 0 162 C-8.71741555 162 -14.41223515 159.66504671 -20.875 153.8125 C-26.04361183 148.18175347 -27.85008164 141.5392161 -28.9375 134.125 C-29.5275699 130.55936392 -29.8319941 129.21247805 -32.125 126.3125 C-36.18857061 124.45739168 -38.53814003 124.43341461 -43 125 C-46.82948017 127.92760984 -47.62364347 130.46637295 -48.4375 135.125 C-50.59764468 145.37419711 -54.1372932 153.02514148 -63 159 C-69.38445227 162.80350348 -76.7739773 162.94327721 -84 162 C-89.26352546 160.16093689 -93.61036338 157.39425417 -98 154 C-97.11252728 146.39309101 -97.11252728 146.39309101 -96.48908997 144.21524048 C-95.90402257 141.5652884 -95.8677441 139.13017674 -95.8581543 136.41552734 C-95.85111984 135.29270355 -95.84408539 134.16987976 -95.83683777 133.01303101 C-95.83267349 131.79959015 -95.82850922 130.58614929 -95.82421875 129.3359375 C-95.80099122 126.74217965 -95.77687277 124.14842965 -95.75195312 121.5546875 C-95.71586687 117.48502779 -95.68595239 113.41551074 -95.67407227 109.34570312 C-95.53802816 75.17142356 -89.44497219 49.48250559 -64.6640625 24.66015625 C-46.61050235 7.57062116 -24.52167057 0 0 0 Z " fill="#00C178" transform="translate(256,329)"/>
<path d="M0 0 C1.57151998 1.34368842 3.134197 2.69779366 4.6875 4.0625 C5.48285156 4.70316406 6.27820313 5.34382813 7.09765625 6.00390625 C22.79029146 19.11011664 33.3767082 37.52825095 38.6875 57.0625 C39.01097412 57.99280029 39.33444824 58.92310059 39.66772461 59.8815918 C43.68249422 72.40455883 43.02871511 85.93774885 43.00317383 98.93164062 C42.99999359 102.31933198 43.02361705 105.70616473 43.04882812 109.09375 C43.05109988 111.27604058 43.05180519 113.45833348 43.05078125 115.640625 C43.059991 116.63878235 43.06920074 117.6369397 43.07868958 118.66534424 C43.0189915 127.81917846 41.29670906 135.71250192 35.6875 143.0625 C31.17067445 135.31937049 31.40667542 126.90220444 31.4140625 118.2265625 C31.39375538 115.69140198 31.37290428 113.15624577 31.3515625 110.62109375 C31.3291032 106.66776894 31.31254047 102.71461586 31.30664062 98.76123047 C31.22529749 66.35819247 25.45099613 40.49117906 2.3125 16.375 C-17.70618095 -2.99791705 -43.17963676 -9.48989793 -70.2734375 -9.21875 C-78.49612718 -9.00069936 -85.56746133 -7.71916882 -93.3125 -4.9375 C-94.36953125 -4.56367188 -95.4265625 -4.18984375 -96.515625 -3.8046875 C-107.94684656 0.621247 -118.11701316 6.99175039 -127.3125 15.0625 C-128.06144531 15.71605469 -128.81039062 16.36960937 -129.58203125 17.04296875 C-146.73984065 33.05892744 -156.75382558 56.58423576 -157.67578125 79.86987305 C-157.8634005 87.5792519 -157.87831425 95.28869843 -157.875 103 C-157.87717645 106.97443902 -157.88830353 110.94862698 -157.91575623 114.92298889 C-157.93235024 117.37608939 -157.93557657 119.82933238 -157.92274475 122.28245544 C-157.96796367 129.65512479 -158.98748794 136.06076806 -161.3125 143.0625 C-166.57725714 137.07156946 -169.41967419 130.4058387 -169.45776367 122.45605469 C-169.46733345 121.09247833 -169.46733345 121.09247833 -169.47709656 119.70135498 C-169.47820938 118.72225159 -169.4793222 117.74314819 -169.48046875 116.734375 C-169.48379715 115.71257141 -169.48712555 114.69076782 -169.49055481 113.63800049 C-169.49561921 111.46928354 -169.49796329 109.30055879 -169.49780273 107.13183594 C-169.49996432 103.86639885 -169.51805557 100.6013137 -169.53710938 97.3359375 C-169.62974731 63.91089301 -161.95888779 36.37962496 -139.3125 11.0625 C-102.66924071 -25.63920149 -41.74122013 -32.70379085 0 0 Z " fill="#117051" transform="translate(319.3125,338.9375)"/>
<path d="M0 0 C0 3.3 0 6.6 0 10 C-1.23492187 10.07476562 -2.46984375 10.14953125 -3.7421875 10.2265625 C-26.64245058 11.8894683 -46.89235985 19.40106512 -64 35 C-65.15048828 36.01126953 -65.15048828 36.01126953 -66.32421875 37.04296875 C-83.47314864 52.99476567 -93.44403252 76.59010419 -94.36328125 99.80737305 C-94.5509005 107.5167519 -94.56581425 115.22619843 -94.5625 122.9375 C-94.56467645 126.91193902 -94.57580353 130.88612698 -94.60325623 134.86048889 C-94.61985024 137.31358939 -94.62307657 139.76683238 -94.61024475 142.21995544 C-94.65546367 149.59262479 -95.67498794 155.99826806 -98 163 C-103.26475714 157.00906946 -106.10717419 150.3433387 -106.14526367 142.39355469 C-106.15483345 141.02997833 -106.15483345 141.02997833 -106.16459656 139.63885498 C-106.16570938 138.65975159 -106.1668222 137.68064819 -106.16796875 136.671875 C-106.17129715 135.65007141 -106.17462555 134.62826782 -106.17805481 133.57550049 C-106.18311921 131.40678354 -106.18546329 129.23805879 -106.18530273 127.06933594 C-106.18746432 123.80389885 -106.20555557 120.5388137 -106.22460938 117.2734375 C-106.31724731 83.84839301 -98.64638779 56.31712496 -76 31 C-55.34500806 10.31206549 -29.24916936 -0.86167766 0 0 Z " fill="#0A9161" transform="translate(256,319)"/>
<path d="M0 0 C0.33 0 0.66 0 1 0 C1 90.75 1 181.5 1 275 C19.15 275 37.3 275 56 275 C56 260.81 56 246.62 56 232 C56.33 232 56.66 232 57 232 C57.10217095 238.49196796 57.17178598 244.98372542 57.21972656 251.47631836 C57.23973086 253.68082426 57.26694322 255.88527786 57.30175781 258.08959961 C57.35077058 261.27470883 57.37308127 264.45911116 57.390625 267.64453125 C57.41127014 268.61582474 57.43191528 269.58711823 57.45318604 270.58784485 C57.45605817 279.5252938 55.33328451 288.81005053 48.9375 295.4296875 C41.45112104 301.4972769 33.94380034 303.98859814 24.33203125 303.51171875 C16.27860255 302.27490848 10.83085175 298.53314523 5.5703125 292.453125 C0.6540663 284.77301899 -0.57991517 278.30778278 -0.48101807 269.24986267 C-0.48443577 268.09469463 -0.48785347 266.9395266 -0.49137473 265.74935347 C-0.49679824 262.56559894 -0.48439769 259.38250576 -0.46426249 256.19882929 C-0.44691191 252.75723861 -0.45283953 249.3156761 -0.45587158 245.87405396 C-0.45796416 239.9187543 -0.44546487 233.96363058 -0.42292023 228.00837517 C-0.39034629 219.39821498 -0.37998771 210.78813946 -0.37496826 202.17792434 C-0.36622405 188.20686559 -0.33963224 174.2359005 -0.30175781 160.26489258 C-0.26501507 146.697189 -0.2367144 133.1295109 -0.21972656 119.56176758 C-0.21867567 118.72478633 -0.21762477 117.88780509 -0.21654204 117.02546077 C-0.21132171 112.82637262 -0.20626692 108.62728429 -0.20129442 104.42819583 C-0.1598596 69.61873046 -0.08943503 34.80937389 0 0 Z " fill="#096B63" transform="translate(73,188)"/>
<path d="M0 0 C0.33 0 0.66 0 1 0 C1.13743905 35.59342326 1.24311164 71.18679986 1.30639198 106.780434 C1.3138959 110.98594732 1.32166186 115.19146012 1.32958984 119.39697266 C1.33116371 120.23418768 1.33273757 121.07140271 1.33435912 121.93398789 C1.36044192 135.4765687 1.40773547 149.01899615 1.46291678 162.5614861 C1.519096 176.46520705 1.55236748 190.36884787 1.56453097 204.27267766 C1.57274925 212.84691456 1.59867207 221.42071789 1.6474988 229.99482128 C1.67930126 235.88049358 1.68878109 241.7659429 1.68100826 247.6516948 C1.6771783 251.04394267 1.68621664 254.434828 1.71523285 257.82704353 C1.74522516 261.5149913 1.7378579 265.20110614 1.7215271 268.88909912 C1.73900415 269.94750149 1.7564812 271.00590387 1.77448785 272.09637904 C1.67165439 280.72783301 -1.02012821 288.40998152 -6.74181044 295.00884414 C-8.40140617 296.58440431 -10.05828472 297.79093193 -12 299 C-12.65613281 299.40992188 -13.31226563 299.81984375 -13.98828125 300.2421875 C-21.45252607 304.19946538 -29.80891613 304.23671327 -37.8125 301.875 C-46.69466544 296.6501968 -52.72909215 291.38037386 -55.57687378 281.15791321 C-56.42668443 276.8239402 -56.24109678 272.4347577 -56.1953125 268.03515625 C-56.1924826 267.00184677 -56.18965271 265.96853729 -56.18673706 264.90391541 C-56.17559647 261.62332278 -56.15050304 258.34300927 -56.125 255.0625 C-56.1149623 252.83008208 -56.10583783 250.59765986 -56.09765625 248.36523438 C-56.07567721 242.910062 -56.04226084 237.45505095 -56 232 C-55.67 232 -55.34 232 -55 232 C-55 246.19 -55 260.38 -55 275 C-36.85 275 -18.7 275 0 275 C0 184.25 0 93.5 0 0 Z " fill="#105752" transform="translate(438,188)"/>
<path d="M0 0 C5.28923987 1.76307996 7.80008936 4.61155112 11 9 C12.7097368 14.1292104 12.64617595 19.06147216 10.9375 24.1875 C7.85901775 28.65626455 4.19825506 32.26724831 -1 34 C-6.33989401 34.84709162 -10.23661575 34.28722627 -14.875 31.4375 C-18.88292398 28.43680299 -20.75968232 25.96127073 -22 21 C-22.62713187 15.94274427 -22.61728809 12.23457619 -20.3125 7.625 C-13.97219262 0.42789432 -9.31866806 -0.71275931 0 0 Z " fill="#1F282F" transform="translate(169,270)"/>
<path d="M0 0 C5.67458259 1.89152753 9.32628019 5.65256038 12 11 C12.76519013 17.74872608 12.16801203 23.48088926 8 29 C2.58450891 33.31028883 -2.12229724 34.69432047 -9 34 C-14.43879866 32.15080845 -17.77361725 28.62413162 -21 24 C-22.5302087 19.40937391 -22.9413765 14.62459862 -21.28125 9.99609375 C-16.26347936 0.6282397 -9.80687808 -0.75010116 0 0 Z " fill="#1F272E" transform="translate(353,270)"/>
<path d="M0 0 C-7.05158283 5.74882427 -15.61437597 6.53675506 -24.4375 6.4375 C-25.35184814 6.43282715 -26.26619629 6.4281543 -27.20825195 6.42333984 C-34.679624 6.25986412 -42.47292033 5.52707967 -48 0 C-32.71287284 -4.89065034 -15.13550497 -6.62178342 0 0 Z " fill="#B5596D" transform="translate(280,412)"/>
<path d="M0 0 C0 2.97 0 5.94 0 9 C-8.08074928 9.56268274 -14.66278642 8.54567287 -22 5 C-22.66 4.34 -23.32 3.68 -24 3 C-15.95073076 -0.11584616 -8.56674915 -0.33328851 0 0 Z " fill="#F56F88" transform="translate(256,409)"/>
</svg>
